# xmcd
#
# Track frame offsets: 
#        150
#        17495
#        33958
#        54167
#        68270
#        89943
#        103949
#        115403
#        121871
#        136884
#        154369
#        172240
#        186891
#        202464
#        220583
#        246786
#        267195
#        288851
#        297648
#
# Disc length: 4277 seconds
#
# Revision: 0
# Processed by: cddbd v1.5.2PL0 Copyright (c) Steve Scherf et al.
# Submitted via: ExactAudioCopy v0.95a4
#
DISCID=2310b313
DTITLE=Lightnin' Hopkins - Lightnin' Strikes Twice (Disc1)
DYEAR=2005
DGENRE=Blues
TTITLE0=From Man To Man
TTITLE1=I Wish I Was A Baby
TTITLE2=Little Boy Blue
TTITLE3=The Crazy Song
TTITLE4=Lightnin's Love
TTITLE5=That Man From New York City
TTITLE6=Take It If You Want It
TTITLE7=I Got A Letter
TTITLE8=Gonna Move Off This Street
TTITLE9=Help Yourself
TTITLE10=This Time We're Gonna Try
TTITLE11=Let's Work Awhile
TTITLE12=The Jet
TTITLE13=How Can You Love Me And Another Man Too
TTITLE14=I heard My Baby Crying
TTITLE15=Chicken Mary
TTITLE16=My Baby Laid Out All Night
TTITLE17=Sam's Blues
TTITLE18=Goin' To Heaven When I Die
EXTD=
EXTT0=
EXTT1=
EXTT2=
EXTT3=
EXTT4=
EXTT5=
EXTT6=
EXTT7=
EXTT8=
EXTT9=
EXTT10=
EXTT11=
EXTT12=
EXTT13=
EXTT14=
EXTT15=
EXTT16=
EXTT17=
EXTT18=
PLAYORDER=
